<?xml version="1.0" encoding="UTF-8" standalone="no"?>
<svg
   xmlns:dc="http://purl.org/dc/elements/1.1/"
   xmlns:cc="http://creativecommons.org/ns#"
   xmlns:rdf="http://www.w3.org/1999/02/22-rdf-syntax-ns#"
   xmlns:svg="http://www.w3.org/2000/svg"
   xmlns="http://www.w3.org/2000/svg"
   xmlns:sodipodi="http://sodipodi.sourceforge.net/DTD/sodipodi-0.dtd"
   xmlns:inkscape="http://www.inkscape.org/namespaces/inkscape"
   version="1.1"
   id="svg2"
   xml:space="preserve"
   width="466.49332"
   height="198.36"
   viewBox="0 0 466.49332 198.36"
   sodipodi:docname="Department of Engineering_Full Colour (2).eps"><metadata
     id="metadata8"><rdf:RDF><cc:Work
         rdf:about=""><dc:format>image/svg+xml</dc:format><dc:type
           rdf:resource="http://purl.org/dc/dcmitype/StillImage" /></cc:Work></rdf:RDF></metadata><defs
     id="defs6" /><sodipodi:namedview
     pagecolor="#ffffff"
     bordercolor="#666666"
     borderopacity="1"
     objecttolerance="10"
     gridtolerance="10"
     guidetolerance="10"
     inkscape:pageopacity="0"
     inkscape:pageshadow="2"
     inkscape:window-width="640"
     inkscape:window-height="480"
     id="namedview4" /><g
     id="g10"
     inkscape:groupmode="layer"
     inkscape:label="ink_ext_XXXXXX"
     transform="matrix(1.3333333,0,0,-1.3333333,0,198.36)"><g
       id="g12"
       transform="scale(0.1)"><path
         d="m 800.73,541.277 c 52.59,0 87.766,31.856 87.766,93.184 V 755 H 864.742 V 632.656 c 0,-45.988 -24.644,-69.445 -63.406,-69.445 -40.281,0 -64.34,25.559 -64.34,70.949 V 755 H 713.258 V 632.656 c 0,-59.523 35.465,-91.379 87.472,-91.379 m 134.047,3.301 h 23.145 v 88.985 c 0,29.152 19.848,48.691 46.598,48.691 27.36,0 42.98,-18.027 42.98,-46.883 v -90.793 h 23.15 v 96.504 c 0,36.965 -21.94,62.219 -59.53,62.219 -26.749,0 -42.968,-13.535 -53.198,-30.363 v 27.05 h -23.145 z m 179.753,189.375 h 26.45 v 25.559 h -26.45 z m 1.5,-189.375 h 23.15 v 155.41 h -23.15 z m 122.94,-1.191 h 20.44 l 67.63,156.601 h -24.94 l -52.61,-128.953 -52.3,128.953 h -25.55 z m 123.22,69.426 h 123.26 c 0.3,3.621 0.3,6.015 0.3,8.125 0,45.683 -26.47,82.363 -72.44,82.363 -43,0 -74.55,-36.074 -74.55,-81.153 0,-48.398 34.85,-81.171 77.55,-81.171 29.44,0 48.39,11.726 64.01,29.16 l -14.43,12.929 c -12.61,-13.234 -27.65,-21.933 -48.98,-21.933 -27.36,0 -51.4,18.933 -54.72,51.68 m 0,18.652 c 3.32,30.047 23.75,52.285 50.51,52.285 30.66,0 46.89,-24.035 49.59,-52.285 z m 158.11,-86.887 h 23.14 v 61.934 c 0,46.886 27.67,71.23 61.62,71.23 h 1.81 v 24.942 c -29.46,1.222 -52,-17.43 -63.43,-43.27 v 40.574 h -23.14 z m 167.13,-2.996 c 30.95,0 55.31,17.137 55.31,46.582 v 0.606 c 0,27.949 -25.86,37.285 -49.9,44.492 -20.73,6.308 -39.97,12.011 -39.97,26.758 v 0.585 c 0,12.938 11.72,22.559 30.05,22.559 15.03,0 31.55,-5.715 45.99,-15.039 l 10.51,17.43 c -15.92,10.527 -36.96,17.129 -55.9,17.129 -30.65,0 -52.91,-17.715 -52.91,-44.473 v -0.606 c 0,-28.554 27.05,-36.972 51.4,-43.886 20.45,-5.711 38.78,-11.719 38.78,-27.352 v -0.597 c 0,-15.02 -13.53,-24.637 -32.16,-24.637 -18.33,0 -36.98,7.207 -53.81,19.824 l -11.73,-16.523 c 17.44,-14.141 42.09,-22.852 64.34,-22.852 m 92.88,192.371 h 26.44 v 25.559 h -26.44 z m 1.49,-189.375 h 23.16 v 155.41 h -23.16 z m 122.93,-2.695 c 11.13,0 19.86,2.394 27.95,6.613 v 19.844 c -8.09,-3.906 -14.71,-5.41 -22.54,-5.41 -15.63,0 -26.14,6.902 -26.14,25.84 v 90.769 h 49.29 v 20.449 H 1884 v 46.887 h -23.14 v -46.887 h -21.65 v -20.449 h 21.65 V 585.77 c 0,-31.571 18.93,-43.887 43.87,-43.887 m 87.47,-46.289 c 23.45,0 38.48,11.73 51.7,43.886 l 65.24,160.508 h -24.65 l -49.9,-129.55 -56.51,129.55 h -25.54 l 70.63,-154.793 c -9.32,-21.953 -18.05,-29.172 -31.86,-29.172 -9.92,0 -16.84,1.809 -24.36,5.715 l -7.81,-18.332 c 10.52,-5.097 20.14,-7.812 33.06,-7.812"
         style="fill:#001f38;fill-opacity:1;fill-rule:nonzero;stroke:none"
         id="path14" /><path
         d="m 812.336,844.91 c 32.781,0 60.191,6.68 82.211,20.039 21.996,13.36 38.547,32.188 49.629,56.485 11.086,24.277 16.625,53.117 16.625,86.526 0,51.61 -13.055,91.54 -39.168,119.78 -26.11,28.23 -62.551,42.35 -109.297,42.35 H 672.98 v -19.13 h 5.915 c 10.023,0 18.75,-1.81 26.195,-5.47 7.426,-3.63 11.152,-12.15 11.152,-25.51 V 896.836 c 0,-14.27 -3.644,-23.313 -10.933,-27.109 -7.293,-3.789 -16.09,-5.696 -26.414,-5.696 H 672.98 V 844.91 Z m -50.102,302.42 h 40.079 c 35.828,0 62.765,-12.01 80.843,-35.99 18.063,-23.99 27.09,-58.45 27.09,-103.38 0,-44.933 -9.027,-79.464 -27.09,-103.605 -18.078,-24.152 -45.168,-36.21 -81.301,-36.21 H 762.234 Z M 1142.97,848.34 c 12.45,5.301 23.38,16.453 32.79,33.465 h 2.28 l 5.91,-36.895 h 72.42 v 19.121 h -1.35 c -10.03,0 -18.75,1.758 -26.21,5.246 -7.44,3.485 -11.15,11.914 -11.15,25.282 v 194.461 h -81.52 v -19.12 h 1.37 c 10.31,0 19.12,-1.9 26.41,-5.69 7.28,-3.81 10.93,-12.84 10.93,-27.11 v -93.819 c 0,-22.148 -4.56,-39.992 -13.66,-53.508 -9.11,-13.503 -23.68,-20.261 -43.73,-20.261 -18.51,0 -31.12,5.457 -37.79,16.394 -6.69,10.93 -10.02,26.262 -10.02,45.989 v 157.125 h -81.525 v -19.12 h 1.367 c 10.028,0 18.748,-1.82 26.178,-5.47 7.45,-3.64 11.17,-12.15 11.17,-25.51 V 929.617 c 0,-31.269 6.52,-53.953 19.58,-68.074 13.05,-14.121 31.57,-21.172 55.56,-21.172 14.87,0 28.53,2.656 40.99,7.969 m 261.42,-3.43 v 19.121 h -12.75 c -10.02,0 -18.75,1.758 -26.19,5.246 -7.46,3.485 -11.16,11.914 -11.16,25.282 v 71.504 c 0,8.808 0.76,18.746 2.27,29.832 1.52,11.065 3.94,21.785 7.29,32.105 3.34,10.32 7.89,18.82 13.67,25.51 5.76,6.67 12.89,10.01 21.39,10.01 8.82,0 15.03,-2.82 18.68,-8.43 3.65,-5.62 5.46,-14.65 5.46,-27.09 15.19,0 26.04,3.04 32.57,9.1 6.52,6.08 9.79,13.82 9.79,23.23 0,10.63 -4.03,18.82 -12.06,24.6 -8.05,5.76 -20.43,8.66 -37.11,8.66 -13.38,0 -23.86,-2.29 -31.44,-6.84 -7.6,-4.55 -13.66,-10.55 -18.21,-18 -4.57,-7.44 -8.81,-15.71 -12.76,-24.81 h -2.27 l -8.66,45.08 h -70.13 v -19.12 h 1.37 c 10.02,0 18.75,-1.82 26.17,-5.47 7.45,-3.64 11.17,-12.15 11.17,-25.51 V 896.836 c 0,-14.27 -3.65,-23.313 -10.94,-27.109 -7.28,-3.789 -16.1,-5.696 -26.4,-5.696 h -1.37 V 844.91 Z m 189.45,0 v 19.121 h -1.37 c -10.01,0 -18.75,1.758 -26.18,5.246 -7.45,3.485 -11.16,11.914 -11.16,25.282 v 96.093 c 0,22.458 4.47,40.388 13.43,53.738 8.97,13.36 22.84,20.04 41.68,20.04 18.52,0 31.49,-5.46 38.94,-16.39 7.44,-10.94 11.16,-26.27 11.16,-45.99 V 844.91 h 79.23 v 19.121 h -1.36 c -10.33,0 -18.75,1.907 -25.27,5.696 -6.54,3.796 -9.79,12.839 -9.79,27.109 v 107.484 c 0,31.27 -6.91,53.96 -20.72,68.08 -13.83,14.11 -33.8,21.19 -59.89,21.19 -30.98,0 -53.29,-13.84 -66.95,-41.46 h -2.27 c 0.58,8.2 1.04,15.33 1.36,21.41 0.29,6.07 0.45,11.85 0.45,17.3 v 100.2 h -83.81 v -19.13 h 3.66 c 10.01,0 18.73,-1.82 26.18,-5.46 7.44,-3.64 11.15,-12.15 11.15,-25.51 V 896.836 c 0,-14.27 -3.64,-23.313 -10.92,-27.109 -7.29,-3.789 -16.1,-5.696 -26.41,-5.696 h -3.66 V 844.91 Z m 264.6,1.153 c 8.21,3.789 15.34,8.945 21.41,15.48 6.06,6.523 12.3,14.031 18.67,22.539 h 3.63 l 7.3,-39.172 h 61.47 v 19.121 h -1.36 c -10.33,0 -17.6,2.297 -21.85,6.848 -4.26,4.551 -6.39,13.203 -6.39,25.957 v 117.954 c 0,28.85 -6.9,49.18 -20.72,61.03 -13.81,11.84 -34.69,17.77 -62.62,17.77 -15.17,0 -28.92,-1.45 -41.22,-4.33 -12.28,-2.9 -22.15,-7.6 -29.6,-14.12 -7.45,-6.54 -11.15,-14.96 -11.15,-25.29 0,-10.32 3.25,-17.68 9.79,-22.08 6.53,-4.4 16.17,-6.6 28.92,-6.6 0,9.41 0.98,17.9 2.97,25.5 1.97,7.58 5.98,13.51 12.06,17.76 6.07,4.26 14.88,6.38 26.42,6.38 12.45,0 21.7,-2.44 27.77,-7.29 6.08,-4.85 10.03,-11.46 11.85,-19.82 1.82,-8.35 2.73,-17.99 2.73,-28.91 v -27.321 l -37.8,-1.36 c -34.91,-1.23 -60.96,-7.605 -78.11,-19.136 -17.14,-11.543 -25.72,-29.453 -25.72,-53.743 0,-24.902 6.67,-43.261 20.03,-55.105 13.36,-11.848 30.21,-17.754 50.56,-17.754 12.45,0 22.76,1.883 30.96,5.692 m -57.38,64.894 c 0,17.91 4.93,31.484 14.8,40.75 9.87,9.27 27.7,14.504 53.51,15.715 l 29.15,1.367 v -36.894 c 0,-19.426 -5.46,-34.836 -16.39,-46.211 -10.93,-11.387 -25.66,-17.082 -44.17,-17.082 -24.6,0 -36.9,14.113 -36.9,42.355 m 315.61,-66.047 v 19.121 h -1.37 c -10.02,0 -18.75,1.758 -26.19,5.246 -7.43,3.485 -11.15,11.914 -11.15,25.282 v 96.093 c 0,13.058 1.66,25.208 5,36.438 3.35,11.23 8.8,20.27 16.4,27.09 7.59,6.84 18.07,10.25 31.43,10.25 17.6,0 29.98,-5.46 37.11,-16.39 7.14,-10.94 10.71,-26.27 10.71,-45.99 V 844.91 h 79.23 v 19.121 h -1.37 c -10.32,0 -18.75,1.907 -25.26,5.696 -6.55,3.796 -9.79,12.839 -9.79,27.109 v 99.73 c 0,12.144 1.58,23.384 4.78,33.714 3.19,10.31 8.43,18.6 15.7,24.81 7.3,6.22 17.33,9.34 30.08,9.34 17.6,0 29.96,-5.46 37.11,-16.39 7.13,-10.94 10.69,-26.27 10.69,-45.99 V 844.91 h 79.25 v 19.121 h -1.37 c -10.32,0 -18.75,1.907 -25.26,5.696 -6.53,3.796 -9.81,12.839 -9.81,27.109 v 107.484 c 0,31.27 -6.6,53.96 -19.81,68.08 -13.2,14.11 -31.35,21.19 -54.41,21.19 -13.97,0 -27.11,-2.66 -39.41,-7.98 -12.29,-5.31 -23,-16.47 -32.11,-33.48 h -3.64 c -5.76,15.18 -14.57,25.89 -26.42,32.11 -11.83,6.23 -25.05,9.35 -39.62,9.35 -13.96,0 -26.63,-2.66 -38.01,-7.98 -11.4,-5.31 -21.63,-16.47 -30.76,-33.48 h -2.27 l -5.91,36.89 h -71.51 v -19.12 h 1.36 c 10.02,0 18.38,-1.82 25.05,-5.47 6.67,-3.64 10.02,-12.15 10.02,-25.51 V 896.836 c 0,-14.27 -3.26,-23.313 -9.78,-27.109 -6.54,-3.789 -14.96,-5.696 -25.29,-5.696 h -5.91 V 844.91 h 122.51"
         style="fill:#001f38;fill-opacity:1;fill-rule:nonzero;stroke:none"
         id="path16" /><path
         d="m 622.328,1202.98 c 5.77,55.02 0.328,165.57 -10.613,225.4 -2.535,13.85 -11.52,30.98 -35.395,36.56 -61.07,14.22 -141.828,22.12 -227.925,22.78 -7.489,-61.64 -13.809,-147.07 -13.809,-243.57 l 0.098,-36.9 0.015,-2.04 9.16,-0.87 c 4.379,-0.39 6.071,-2.78 6.696,-7.21 0.617,-4.35 1.179,-9.76 1.179,-9.76 0,0 164.067,0.96 270.594,15.61"
         style="fill:#611c66;fill-opacity:1;fill-rule:nonzero;stroke:none"
         id="path18" /><path
         d="m 291.32,1125.63 -9.179,0.87 c -4.391,0.41 -6.227,2.76 -6.696,7.22 -0.453,4.14 -1.179,9.76 -1.179,9.76 l 0.019,0.05 c -73.078,0 -155.461,-0.39 -261.9842,-15.05 C 26.668,1046.2 120.703,860.098 272.199,780.438 279.695,842.078 291.5,992.34 291.5,1088.83 l -0.156,34.82 -0.008,2.04 -0.016,-0.06"
         style="fill:#611c66;fill-opacity:1;fill-rule:nonzero;stroke:none"
         id="path20" /><path
         d="m 351.688,1143.53 c 73.054,0 156.191,-0.39 262.707,-15.05 C 600.027,1046.2 505.992,860.098 354.488,780.438 347.012,842.078 334.52,992.34 334.52,1088.83 l 0.55,35.45 -0.074,1.42 8.789,0.8 c 4.387,0.41 6.156,2.77 6.695,7.22 0.493,4.03 1.18,9.76 1.18,9.76 l 0.028,0.05"
         style="fill:#611c66;fill-opacity:1;fill-rule:nonzero;stroke:none"
         id="path22" /><path
         d="m 151.367,1310.15 c -0.394,-0.75 -0.137,-2.04 0.274,-2.65 0.64,0.07 2.179,0.52 3.007,1.03 0.954,0.59 1.231,1.05 2.254,1.78 -0.992,0.07 -5.398,0.1 -5.535,-0.16"
         style="fill:#611c66;fill-opacity:1;fill-rule:nonzero;stroke:none"
         id="path24" /><path
         d="m 185.176,1270.04 c 0,-2.58 -3.906,-4.08 -4.696,-5.24 -0.39,-0.58 -0.718,-0.92 -0.878,-1.55 -0.469,1.66 0.414,3.03 0.414,4.21 0,1.35 -0.946,1.99 -2.305,1.99 -2.051,0 -7.555,-4.96 -4.234,-12.92 -0.219,2.83 0.828,4.68 1.3,5.21 0.473,0.53 0.907,1.56 0.809,2.39 1.066,-1.96 1.289,-2.85 1.289,-4.42 0,-3.4 -2.461,-4.1 -1.309,-6.62 0.211,-0.69 0.442,-1.27 0.797,-2.15 0,1.19 0.211,2.23 0.422,3.07 0.203,0.84 1.516,2.4 1.668,3.03 0.156,0.63 0.211,1.26 0.051,2.04 1.098,-1.37 1.828,-2.55 1.828,-4.75 0,-2.56 -1.152,-4.03 -1.469,-4.75 -0.308,-0.74 -0.672,-1.46 -0.824,-2.71 -0.715,-5.64 -3.492,-8.29 -7.152,-8.29 -2.297,0 -4.016,0.36 -5.473,1.3 0,-7.25 -8.254,-6.68 -8.254,-11.42 0,-1.31 0.887,-2.87 1.774,-3.76 0.882,-0.88 4.238,-2.12 5.48,-3.74 -1.805,-0.12 -3.742,-0.75 -4.785,-1.95 2.961,-1.47 2.887,-3.15 3.273,-5.4 -2.914,1.45 -4.242,0.61 -4.996,-0.17 -0.886,-0.94 -0.457,-2.18 -1.48,-3.63 -0.469,1.14 -1.235,2.11 -2.481,2.11 -1.261,0 -3.836,-2.25 -3.875,-2.99 -0.109,-1.98 -1.05,-2.77 -2.836,-2.99 -1.336,-1.43 -1.015,-2.15 -0.968,-3.48 -1.157,1.09 -1.344,1.8 -0.899,3.79 -1.344,0.54 -1.179,1.66 -0.781,2.64 l -0.496,0.36 c -0.731,-0.64 -1.461,-1.55 -3.242,-0.71 -0.688,-0.29 -1.582,-1.35 -1.727,-2.6 -0.461,2.99 0.481,4.02 0.973,4.46 -0.305,0.68 0.129,2.1 1.347,2.63 0,0.29 -0.113,0.45 -0.152,0.59 -1,0 -1.836,0.4 -2.187,1.05 -0.961,0.18 -2.274,-0.97 -2.52,-1.66 0,1.68 1.34,3.38 2.324,3.79 1.121,2.22 3.262,2.62 4.551,1.33 0.719,-0.71 2.43,-1.49 4.172,-1.49 1.726,0 3.316,1.44 3.73,2.01 0.418,0.58 0.465,0.68 0.676,1.15 0.383,0.86 1.106,1.88 -0.676,4.12 -1.406,1.77 -4.918,5.21 -4.988,7.67 -0.105,4.04 1.766,6.39 3.59,8 -0.637,0 -0.473,0 -1.445,0 -2.578,0 -2.797,1.61 -5.43,1.61 -1.922,0 -3.066,-1.93 -3.066,-3.6 0,-1.67 0.3,-2.02 0.886,-3.1 0.797,-1.49 1.09,-2.31 0.879,-3.82 -1.515,1.37 -3.683,2.07 -5.414,0.55 -0.668,-1.93 -1.082,-2.69 -2.32,-3.62 -0.11,1.61 -3.41,4.17 -6.36,1.44 -0.289,-0.69 -0.546,-2.23 -2.605,-2.23 -1.227,0 -1.106,0.3 -1.617,0.51 -0.84,-0.73 -1.555,-1.54 -1.797,-2.6 -0.43,1.6 0.137,2.97 0.683,3.65 -0.195,0.68 -0.136,2.4 0.747,2.87 -0.262,0.3 -0.157,0.1 -0.403,0.52 -1.281,-1.09 -3.304,-1.22 -4.183,0.02 -0.746,-0.14 -1.457,-0.66 -2.25,-2.27 -0.192,1.63 0.914,3.48 1.675,4.01 0.02,1.24 1.715,2.31 3.457,1.94 0.133,0.21 -0.031,0.35 0.165,0.6 0.175,0.26 -0.071,0.14 -0.071,0.14 -0.504,0.28 -2.16,0.35 -2.051,2.42 -1.007,0.35 -1.961,-0.12 -2.652,-0.72 0.684,1.77 2.168,2.33 3.301,2.44 0.414,0.78 1.68,0.86 2.328,0.86 1.207,0 2.023,-0.57 2.223,-1.33 1.218,-2.16 3.988,-2.88 6.699,-2.88 1.359,0 2.515,1.03 2.515,2.59 0,1.57 -2.652,6.13 -2.652,8.22 0,2.08 3.738,6.1 6.254,6.1 7.637,0 9.398,-3.2 11.113,-3.2 2.414,0 2.731,0.5 3.102,0.88 -3.598,4.43 -5.891,4.34 -9.32,6.7 -1.731,1.19 -2.618,3.18 -2.883,5.05 -2.117,-0.49 -4.188,-3.33 -5.196,-5.09 -0.472,0.83 -1.195,1.39 -2.085,1.39 -1.7,0 -2.911,-2.21 -3.711,-4.1 -0.489,2.16 -1.786,4.16 -4.262,4.16 -1.387,0 -2.965,-0.59 -3.36,-1.49 -0.394,-0.89 -1.707,-2.23 -3.75,-1.71 -0.734,-0.52 -1.41,-0.73 -1.929,-3 -0.696,2.85 0.008,3.38 0.402,4.08 -0.402,1.87 0.375,2.55 0.731,2.99 l -0.2,0.5 c -1.109,-0.36 -2.75,-0.23 -3.23,0.73 -1.246,0.06 -1.609,-0.1 -2.68,-1.71 0.211,1.81 1.242,3.3 2.375,3.74 0.43,1.06 1.899,1.5 3.067,1.5 0.101,0.3 0.191,0.3 0.25,0.54 -0.762,0.43 -1.411,1.38 -1.254,2.52 -0.938,1.09 -1.977,0.41 -2.832,0.09 1.496,1.57 3.273,2.15 4.465,1.46 2.585,0.85 3.476,-0.35 3.718,-1.8 0.297,-1.66 2.883,-1.88 5.559,-1.88 5.855,0 15.156,5.45 14.484,9.78 -1.386,0.34 -1.543,0.29 -2.629,0.29 -3.129,0 -7.039,-3.91 -10.121,-3.97 1.543,1.75 0.59,3.51 1.442,4.8 -1.692,0.05 -3.414,-1.02 -6.649,-0.73 1.09,0.65 1.836,2.93 1.836,3.72 0,0.8 0,2.39 -3.472,2.39 -0.344,-0.1 -1.286,-0.4 -1.985,-0.4 -0.816,0 -3.109,0.21 -3.109,2.04 -1.149,0.24 -1.985,-0.06 -3.207,-0.98 0.238,1.26 2.609,2.84 3.308,2.94 0.485,0.97 1.45,1.4 1.93,1.34 0.098,0.51 0.078,0.05 0.105,0.65 -1.175,0.16 -2.675,0.58 -2.64,2.55 -0.84,0.77 -1.367,0.93 -3.242,0.44 2.32,1.74 3.156,1.48 3.906,1.19 1.711,1.28 3.101,0.58 3.586,0.03 0.199,0.26 0.383,0.3 0.476,0.5 -0.402,1.24 -0.164,2.45 0.372,3 -0.04,1.35 -0.665,1.76 -1.915,2.03 2.571,-0.05 3.614,-0.64 4.454,-1.59 1.484,-0.2 2.402,-1.49 2.437,-2.43 0.039,-2.42 -2.535,-4.08 2.426,-6.65 1.539,-0.79 3.715,-1.59 5.906,-2.24 2.192,-0.63 4.895,-1.62 5.992,-1.62 -0.851,1.34 -0.496,2.68 -1.886,4.02 1.582,0.1 3.519,-0.45 4.961,-0.74 -0.305,1.94 0.179,1.94 -1.11,3.13 1.094,-0.14 2.652,-0.16 3.492,-0.26 5.645,-0.6 5.719,2.2 6.821,5.75 -1.926,-0.11 -5.168,-0.58 -8.239,-2.62 0.297,1.05 -0.035,1.89 -0.035,2.79 0,1.68 1.324,2.03 1.981,2.03 0.3,0 1.14,0.13 1.773,0.13 1.242,0 2.965,1.39 2.16,4.15 -0.386,1.32 -1.39,2.14 -2.539,1.8 -0.84,-0.24 -1.035,-0.22 -2.265,-0.68 -0.946,-0.36 -1.247,-1.09 -1.348,-2.08 -0.195,0.44 -0.535,1.72 -0.691,2.03 -0.188,0.37 -0.317,0.6 -0.661,1.45 -0.101,0.27 -0.078,0.27 -0.23,0.62 -0.59,1.38 0.348,2.54 1.543,2.78 0.992,0.19 2.59,0.6 3.574,0.89 1.953,0.59 2.559,1.35 2.973,2.38 0.441,1.09 0.711,1.51 2.511,1.51 0.563,0 2.606,-0.05 3.54,-0.05 2.73,0 5.804,2.22 4.796,4.59 1.903,-0.34 2.664,-3.39 2.196,-4.59 0.883,0 3.851,0.58 4.531,1.15 -0.016,-2.05 -1.621,-4.59 -2.762,-5.22 1.457,-0.15 4.028,0.06 4.805,0.74 -0.477,-1.56 -2.141,-4.9 -3.195,-5.37 2.55,-0.88 4.214,-2.26 5.355,-5.41 -1.934,0.79 -3.07,-0.16 -4.758,0.1 3.477,-4.07 4.758,-10.25 5.77,-11.8 -0.938,0.51 -2.821,1.57 -4.227,2.08 1.446,-3.37 -0.691,-6.7 -0.367,-8.5 -1.094,0.63 -2.512,1.41 -2.973,2.3 -0.57,-1.36 -1.765,-4.02 -1.308,-7.46 -0.879,0.94 -2.395,1.67 -3.074,2.19 -1.301,-1.87 -2.09,-3.08 -2.09,-7.88 0,-6.56 3.058,-12.84 4.39,-15.33 2.032,-3.81 2.536,-7.05 2.864,-8.35 0.648,-2.56 2.476,-4.22 4.906,-4.22 2.348,0 4.324,2.15 4.324,4.75 0,4.75 -5.789,7.77 -5.789,16.11 0,5.48 4.223,8.21 4.34,11.71 0.101,3.09 -2.731,1.17 -4.844,2.55 2.715,0.54 4.309,3.54 6.719,3.41 2.125,-0.13 2.613,-1.26 2.726,-2.34 0.157,-1.49 -0.812,-3.22 -1.125,-3.85 2.36,2.04 3.411,5.15 3.411,6.72 0,2.35 -3.301,4.95 -2.45,9.45 0.125,0.6 0.11,0.51 0.254,0.88 0.977,-5.06 8.153,-6.36 8.153,-11.37 0,-4.71 -4.075,-3.82 -6.414,-7.09 2.562,1.03 5.449,0.52 5.449,-2.28 z m -48.266,34.47 c -0.644,-2.38 -0.621,-5.44 2.711,-5.44 2.586,0 7.098,2.22 8.039,2.65 l 0.387,-0.85 c -0.742,-0.3 -6.637,-5.03 -11.391,-5.09 -2.66,-0.04 -3.562,1.56 -3.562,3.12 0,2.42 1.879,3.28 3.816,5.61 z m 12.93,42.15 L 1.5625,1202.98 c 105.8785,-14.56 198.5115,-15.59 271.3825,-15.62 h 1.34 c 0,0 0.606,4.92 1.168,9.77 0.52,4.44 2.317,6.81 6.703,7.21 l 9.18,0.87 0.008,0.17 -141.504,141.28"
         style="fill:#611c66;fill-opacity:1;fill-rule:nonzero;stroke:none"
         id="path26" /><path
         d="m 257.492,1415.24 c 0,-2.72 -4.144,-4.32 -4.98,-5.55 -0.41,-0.6 -0.762,-0.98 -0.934,-1.64 -0.504,1.76 0.442,3.2 0.442,4.47 0,1.43 -1.008,2.1 -2.454,2.1 -2.168,0 -8.003,-5.26 -4.48,-13.69 -0.242,2.99 0.867,4.97 1.375,5.52 0.504,0.55 0.969,1.66 0.852,2.53 1.152,-2.08 1.367,-3.02 1.367,-4.68 0,-3.62 -2.606,-4.36 -1.379,-7.03 0.23,-0.74 0.461,-1.34 0.84,-2.28 0,1.26 0.23,2.37 0.445,3.26 0.219,0.88 1.605,2.54 1.777,3.21 0.157,0.67 0.215,1.34 0.047,2.16 1.168,-1.44 1.942,-2.69 1.942,-5.03 0,-2.71 -1.219,-4.27 -1.555,-5.04 -0.328,-0.78 -0.719,-1.55 -0.883,-2.87 -0.75,-5.99 -3.695,-8.79 -7.578,-8.79 -2.438,0 -4.258,0.38 -5.813,1.37 0,-7.69 -8.742,-7.08 -8.742,-12.11 0,-1.38 0.942,-3.04 1.883,-3.99 0.934,-0.93 4.484,-2.25 5.805,-3.96 -1.906,-0.13 -3.969,-0.79 -5.078,-2.07 3.148,-1.56 3.074,-3.33 3.472,-5.72 -3.09,1.54 -4.508,0.64 -5.289,-0.18 -0.945,-1.01 -0.488,-2.32 -1.57,-3.86 -0.5,1.22 -1.313,2.24 -2.637,2.24 -1.332,0 -4.074,-2.4 -4.105,-3.17 -0.114,-2.1 -1.114,-2.93 -3.008,-3.17 -1.422,-1.52 -1.086,-2.29 -1.027,-3.7 -1.227,1.16 -1.426,1.92 -0.957,4.02 -1.422,0.58 -1.247,1.77 -0.825,2.82 l -0.535,0.37 c -0.758,-0.68 -1.547,-1.64 -3.433,-0.76 -0.723,-0.31 -1.68,-1.42 -1.825,-2.75 -0.492,3.17 0.5,4.27 1.032,4.74 -0.321,0.71 0.132,2.21 1.418,2.78 0,0.31 -0.11,0.47 -0.157,0.62 -1.054,0 -1.941,0.43 -2.32,1.1 -1.012,0.21 -2.406,-1.01 -2.672,-1.74 0,1.77 1.414,3.59 2.465,4.01 1.187,2.36 3.457,2.79 4.836,1.42 0.75,-0.75 2.566,-1.58 4.414,-1.58 1.836,0 3.512,1.52 3.961,2.13 0.441,0.61 0.496,0.71 0.711,1.23 0.402,0.91 1.172,1.97 -0.711,4.37 -1.496,1.87 -5.223,5.52 -5.285,8.12 -0.117,4.28 1.871,6.78 3.804,8.48 -0.679,0 -0.5,0 -1.531,0 -2.738,0 -2.976,1.72 -5.758,1.72 -2.046,0 -3.257,-2.05 -3.257,-3.83 0,-1.76 0.316,-2.14 0.941,-3.29 0.852,-1.57 1.156,-2.44 0.922,-4.03 -1.606,1.45 -3.906,2.18 -5.727,0.57 -0.707,-2.06 -1.152,-2.84 -2.465,-3.84 -0.109,1.71 -3.589,4.42 -6.722,1.53 -0.313,-0.73 -0.582,-2.36 -2.77,-2.36 -1.293,0 -1.164,0.31 -1.715,0.54 -0.894,-0.78 -1.64,-1.64 -1.906,-2.75 -0.457,1.68 0.145,3.14 0.735,3.85 -0.215,0.74 -0.153,2.56 0.793,3.06 -0.282,0.3 -0.184,0.1 -0.43,0.54 -1.356,-1.16 -3.508,-1.29 -4.434,0.02 -0.801,-0.15 -1.554,-0.7 -2.39,-2.4 -0.204,1.72 0.968,3.69 1.777,4.25 0.016,1.31 1.816,2.45 3.656,2.05 0.145,0.23 -0.023,0.38 0.184,0.65 0.191,0.27 -0.071,0.15 -0.071,0.15 -0.539,0.29 -2.296,0.36 -2.175,2.56 -1.071,0.38 -2.082,-0.13 -2.817,-0.76 0.723,1.87 2.293,2.48 3.504,2.59 0.426,0.82 1.778,0.91 2.461,0.91 1.285,0 2.149,-0.61 2.36,-1.41 1.296,-2.31 4.226,-3.07 7.113,-3.07 1.437,0 2.656,1.1 2.656,2.75 0,1.67 -2.832,6.5 -2.832,8.73 0,2.21 3.977,6.45 6.633,6.45 8.097,0 9.965,-3.38 11.785,-3.38 2.555,0 2.902,0.53 3.297,0.94 -3.82,4.7 -6.25,4.59 -9.899,7.1 -1.832,1.26 -2.769,3.37 -3.043,5.35 -2.257,-0.52 -4.453,-3.53 -5.511,-5.4 -0.504,0.88 -1.278,1.49 -2.215,1.49 -1.805,0 -3.086,-2.35 -3.938,-4.35 -0.515,2.29 -1.882,4.41 -4.519,4.41 -1.481,0 -3.145,-0.63 -3.563,-1.59 -0.422,-0.93 -1.808,-2.36 -3.968,-1.81 -0.789,-0.55 -1.504,-0.77 -2.051,-3.18 -0.742,3.01 0.004,3.58 0.426,4.32 -0.426,1.98 0.394,2.7 0.765,3.18 l -0.211,0.53 c -1.172,-0.38 -2.914,-0.25 -3.422,0.76 -1.32,0.07 -1.703,-0.11 -2.839,-1.8 0.226,1.92 1.312,3.5 2.523,3.96 0.453,1.13 2.012,1.59 3.25,1.59 0.105,0.32 0.207,0.32 0.262,0.59 -0.809,0.43 -1.496,1.45 -1.328,2.66 -0.996,1.16 -2.09,0.43 -3.004,0.1 1.597,1.65 3.472,2.27 4.742,1.54 2.726,0.9 3.68,-0.37 3.937,-1.89 0.313,-1.77 3.059,-2 5.891,-2 6.215,0 16.078,5.78 15.359,10.36 -1.468,0.36 -1.629,0.31 -2.781,0.31 -3.32,0 -7.465,-4.16 -10.738,-4.21 1.64,1.85 0.629,3.72 1.527,5.09 -1.793,0.04 -3.617,-1.08 -7.043,-0.77 1.156,0.68 1.942,3.1 1.942,3.93 0,0.86 0,2.54 -3.68,2.54 -0.363,-0.1 -1.359,-0.43 -2.102,-0.43 -0.875,0 -3.316,0.23 -3.316,2.16 -1.199,0.27 -2.094,-0.05 -3.391,-1.03 0.262,1.33 2.774,3.01 3.52,3.13 0.508,1.03 1.531,1.48 2.031,1.42 0.113,0.53 0.094,0.05 0.121,0.68 -1.25,0.17 -2.84,0.62 -2.808,2.71 -0.887,0.81 -1.442,0.99 -3.43,0.47 2.465,1.84 3.348,1.56 4.148,1.26 1.805,1.35 3.286,0.61 3.793,0.02 0.215,0.28 0.411,0.32 0.504,0.54 -0.418,1.31 -0.172,2.61 0.403,3.18 -0.051,1.42 -0.704,1.87 -2.039,2.15 2.73,-0.05 3.828,-0.68 4.722,-1.69 1.574,-0.2 2.559,-1.58 2.586,-2.57 0.047,-2.58 -2.68,-4.34 2.57,-7.05 1.637,-0.84 3.957,-1.68 6.27,-2.37 2.32,-0.68 5.195,-1.72 6.359,-1.72 -0.906,1.41 -0.539,2.83 -2.011,4.26 1.683,0.11 3.734,-0.48 5.261,-0.79 -0.316,2.06 0.196,2.06 -1.172,3.33 1.157,-0.16 2.809,-0.18 3.704,-0.28 5.984,-0.64 6.066,2.32 7.234,6.1 -2.047,-0.12 -5.477,-0.63 -8.738,-2.8 0.316,1.13 -0.035,2.03 -0.035,2.97 0,1.8 1.406,2.15 2.101,2.15 0.32,0 1.203,0.14 1.875,0.14 1.32,0 3.152,1.49 2.293,4.41 -0.406,1.39 -1.469,2.26 -2.691,1.9 -0.895,-0.26 -1.098,-0.24 -2.407,-0.72 -1.007,-0.37 -1.32,-1.15 -1.421,-2.21 -0.204,0.48 -0.567,1.82 -0.743,2.16 -0.195,0.4 -0.328,0.64 -0.687,1.54 -0.117,0.28 -0.09,0.28 -0.25,0.65 -0.629,1.47 0.367,2.7 1.633,2.95 1.047,0.21 2.738,0.64 3.781,0.95 2.09,0.62 2.723,1.43 3.16,2.52 0.469,1.15 0.746,1.61 2.656,1.61 0.602,0 2.774,-0.06 3.758,-0.06 2.906,0 6.168,2.36 5.09,4.88 2.027,-0.37 2.832,-3.61 2.336,-4.88 0.93,0 4.09,0.62 4.797,1.22 -0.008,-2.18 -1.707,-4.86 -2.922,-5.54 1.547,-0.15 4.269,0.07 5.086,0.78 -0.504,-1.65 -2.27,-5.19 -3.379,-5.69 2.699,-0.93 4.473,-2.39 5.68,-5.73 -2.051,0.84 -3.258,-0.18 -5.051,0.1 3.687,-4.32 5.058,-10.88 6.121,-12.51 -1.004,0.54 -2.996,1.65 -4.481,2.2 1.524,-3.58 -0.738,-7.1 -0.394,-9.01 -1.156,0.68 -2.66,1.5 -3.141,2.44 -0.621,-1.45 -1.886,-4.26 -1.386,-7.91 -0.942,1 -2.551,1.77 -3.266,2.33 -1.383,-2 -2.219,-3.28 -2.219,-8.37 0,-6.95 3.239,-13.61 4.653,-16.24 2.156,-4.05 2.695,-7.49 3.035,-8.87 0.683,-2.71 2.636,-4.48 5.207,-4.48 2.484,0 4.582,2.27 4.582,5.04 0,5.04 -6.133,8.23 -6.133,17.09 0,5.81 4.473,8.71 4.598,12.41 0.117,3.28 -2.895,1.24 -5.129,2.71 2.867,0.57 4.562,3.75 7.121,3.61 2.254,-0.13 2.765,-1.33 2.89,-2.48 0.165,-1.58 -0.867,-3.42 -1.199,-4.08 2.5,2.16 3.614,5.47 3.614,7.13 0,2.5 -3.497,5.25 -2.586,10.01 0.121,0.65 0.113,0.56 0.273,0.94 1.031,-5.36 8.633,-6.74 8.633,-12.05 0,-5.01 -4.313,-4.05 -6.781,-7.53 2.703,1.11 5.765,0.56 5.765,-2.42 z m -51.187,36.56 c -0.688,-2.53 -0.653,-5.77 2.871,-5.77 2.738,0 7.527,2.35 8.531,2.82 l 0.41,-0.9 c -0.797,-0.32 -7.043,-5.33 -12.086,-5.4 -2.816,-0.05 -3.777,1.66 -3.777,3.31 0,2.56 1.996,3.47 4.051,5.94 z m -89.242,-44.62 c 0,-2.61 -3.977,-4.14 -4.782,-5.32 -0.398,-0.58 -0.73,-0.94 -0.898,-1.58 -0.477,1.69 0.422,3.08 0.422,4.29 0,1.38 -0.965,2.02 -2.344,2.02 -2.086,0 -7.684,-5.04 -4.309,-13.14 -0.222,2.87 0.836,4.76 1.325,5.3 0.476,0.53 0.921,1.59 0.812,2.43 1.102,-2 1.32,-2.9 1.32,-4.5 0,-3.46 -2.496,-4.18 -1.328,-6.74 0.219,-0.7 0.442,-1.28 0.813,-2.18 0,1.21 0.215,2.27 0.429,3.12 0.204,0.85 1.532,2.43 1.692,3.08 0.164,0.65 0.211,1.28 0.055,2.08 1.113,-1.38 1.855,-2.59 1.855,-4.83 0,-2.6 -1.168,-4.1 -1.492,-4.84 -0.305,-0.75 -0.684,-1.49 -0.836,-2.75 -0.727,-5.74 -3.555,-8.44 -7.27,-8.44 -2.339,0 -4.0895,0.37 -5.5856,1.32 0,-7.37 -8.3906,-6.79 -8.3906,-11.62 0,-1.33 0.9101,-2.92 1.8086,-3.82 0.8906,-0.9 4.3047,-2.16 5.5703,-3.8 -1.832,-0.13 -3.8125,-0.77 -4.8633,-1.99 3.0156,-1.5 2.9375,-3.2 3.3242,-5.5 -2.9648,1.48 -4.3203,0.62 -5.0781,-0.17 -0.9062,-0.96 -0.4727,-2.22 -1.5039,-3.7 -0.4844,1.17 -1.2578,2.15 -2.5273,2.15 -1.2891,0 -3.9063,-2.3 -3.9454,-3.04 -0.1093,-2.01 -1.0625,-2.81 -2.8867,-3.04 -1.3594,-1.46 -1.0351,-2.2 -0.9804,-3.55 -1.1719,1.11 -1.3672,1.84 -0.918,3.86 -1.3672,0.55 -1.2031,1.69 -0.793,2.7 l -0.5117,0.36 c -0.7266,-0.66 -1.4844,-1.58 -3.2969,-0.73 -0.6992,-0.31 -1.6015,-1.36 -1.7539,-2.64 -0.4765,3.04 0.4883,4.09 0.9922,4.53 -0.3125,0.7 0.1328,2.14 1.3633,2.68 0,0.3 -0.1094,0.45 -0.1524,0.6 -1.0117,0 -1.8632,0.41 -2.2226,1.06 -0.9805,0.2 -2.3164,-0.97 -2.5664,-1.68 0,1.71 1.3633,3.44 2.3711,3.85 1.1328,2.27 3.3125,2.67 4.6289,1.36 0.7304,-0.73 2.4726,-1.51 4.2383,-1.51 1.7578,0 3.375,1.46 3.8007,2.04 0.418,0.59 0.4844,0.69 0.6836,1.18 0.3946,0.86 1.1328,1.89 -0.6836,4.18 -1.4296,1.81 -5.0039,5.31 -5.0742,7.8 -0.1054,4.12 1.8008,6.51 3.6524,8.15 -0.6524,0 -0.4727,0 -1.4688,0 -2.6211,0 -2.8555,1.64 -5.5273,1.64 -1.9571,0 -3.1211,-1.96 -3.1211,-3.66 0,-1.71 0.3086,-2.06 0.9023,-3.16 0.8203,-1.52 1.1094,-2.35 0.8906,-3.88 -1.5429,1.39 -3.7421,2.1 -5.5,0.55 -0.6757,-1.98 -1.1015,-2.74 -2.3632,-3.68 -0.1055,1.63 -3.461,4.24 -6.4649,1.46 -0.3008,-0.69 -0.5586,-2.26 -2.6601,-2.26 -1.2383,0 -1.1172,0.3 -1.6446,0.51 -0.8554,-0.74 -1.5742,-1.57 -1.8281,-2.63 -0.4375,1.61 0.1328,3.02 0.7031,3.7 -0.1992,0.69 -0.1445,2.44 0.7618,2.92 -0.2774,0.3 -0.1641,0.11 -0.4141,0.53 -1.3047,-1.11 -3.3594,-1.23 -4.2617,0.02 -0.7539,-0.14 -1.4805,-0.68 -2.2852,-2.31 -0.1914,1.66 0.9375,3.54 1.7031,4.08 0.0157,1.27 1.7422,2.35 3.5196,1.97 0.1289,0.21 -0.0235,0.36 0.1679,0.62 0.1836,0.26 -0.0703,0.14 -0.0703,0.14 -0.5117,0.28 -2.1992,0.36 -2.0898,2.45 -1.0235,0.37 -1.9961,-0.11 -2.7031,-0.72 0.6992,1.8 2.2109,2.38 3.3593,2.49 0.4258,0.78 1.7188,0.87 2.3711,0.87 1.2305,0 2.0625,-0.59 2.2657,-1.36 1.246,-2.2 4.0546,-2.94 6.8164,-2.94 1.3945,0 2.5546,1.07 2.5546,2.65 0,1.6 -2.6992,6.24 -2.6992,8.37 0,2.12 3.8086,6.19 6.3672,6.19 7.7695,0 9.5586,-3.25 11.3086,-3.25 2.4453,0 2.7734,0.52 3.1641,0.9 -3.6719,4.51 -6.0117,4.41 -9.5078,6.82 -1.7539,1.21 -2.6524,3.24 -2.918,5.14 -2.1758,-0.51 -4.2695,-3.4 -5.2891,-5.2 -0.4843,0.86 -1.2226,1.44 -2.1211,1.44 -1.7265,0 -2.9687,-2.26 -3.7812,-4.18 -0.5,2.2 -1.8086,4.24 -4.336,4.24 -1.4179,0 -3.0195,-0.61 -3.4179,-1.52 -0.4024,-0.9 -1.7383,-2.27 -3.8086,-1.74 -0.7578,-0.53 -1.4414,-0.74 -1.9688,-3.06 -0.7031,2.9 0.0078,3.43 0.4102,4.15 -0.4102,1.9 0.3867,2.6 0.7383,3.04 l -0.1953,0.52 c -1.1329,-0.36 -2.8008,-0.24 -3.2969,0.73 -1.2656,0.06 -1.6328,-0.1 -2.7188,-1.73 0.2149,1.84 1.2578,3.36 2.4141,3.81 0.4375,1.08 1.9336,1.52 3.1211,1.52 0.1016,0.3 0.1914,0.3 0.25,0.56 -0.7734,0.42 -1.4258,1.4 -1.2734,2.56 -0.9532,1.11 -2.004,0.41 -2.879,0.09 1.5313,1.59 3.3204,2.18 4.543,1.48 2.625,0.87 3.5391,-0.36 3.7852,-1.83 0.2968,-1.68 2.9297,-1.92 5.6523,-1.92 5.961,0 15.4258,5.55 14.7383,9.95 -1.4141,0.36 -1.5625,0.3 -2.6719,0.3 -3.1836,0 -7.164,-3.98 -10.2929,-4.03 1.5625,1.77 0.6015,3.57 1.4609,4.88 -1.7188,0.05 -3.4766,-1.04 -6.7656,-0.74 1.1093,0.65 1.8711,2.98 1.8711,3.78 0,0.81 0,2.44 -3.5391,2.44 -0.3516,-0.11 -1.3047,-0.41 -2.0156,-0.41 -0.8321,0 -3.1758,0.2 -3.1758,2.06 -1.1602,0.25 -2.0078,-0.05 -3.2656,-0.98 0.2539,1.27 2.664,2.88 3.3828,3 0.4883,0.98 1.4687,1.41 1.9531,1.36 0.1016,0.5 0.082,0.04 0.1172,0.64 -1.207,0.18 -2.7305,0.61 -2.6914,2.6 -0.8516,0.79 -1.3906,0.95 -3.3008,0.45 2.3633,1.77 3.2109,1.5 3.9805,1.22 1.7343,1.29 3.1484,0.59 3.6445,0.03 0.2031,0.25 0.3906,0.29 0.4805,0.5 -0.3985,1.27 -0.1641,2.5 0.3828,3.06 -0.0391,1.36 -0.6797,1.78 -1.9492,2.06 2.6172,-0.05 3.6836,-0.65 4.5312,-1.62 1.5039,-0.19 2.4531,-1.51 2.4766,-2.46 0.0469,-2.48 -2.5742,-4.17 2.4648,-6.78 1.5742,-0.8 3.7891,-1.61 6.0156,-2.26 2.2305,-0.66 4.9805,-1.66 6.0977,-1.66 -0.8633,1.36 -0.5,2.72 -1.9336,4.08 1.6289,0.11 3.5899,-0.45 5.0586,-0.74 -0.3047,1.97 0.1875,1.97 -1.125,3.18 1.1055,-0.15 2.6953,-0.17 3.5586,-0.26 5.7422,-0.62 5.8203,2.23 6.9336,5.85 -1.957,-0.11 -5.2539,-0.6 -8.3789,-2.68 0.3008,1.07 -0.0391,1.93 -0.0391,2.85 0,1.71 1.3516,2.06 2.0156,2.06 0.3125,0 1.1563,0.14 1.8165,0.14 1.25,0 3.0078,1.43 2.1875,4.22 -0.3946,1.34 -1.4102,2.18 -2.5821,1.82 -0.8594,-0.25 -1.0547,-0.22 -2.3164,-0.68 -0.957,-0.36 -1.2578,-1.11 -1.3594,-2.13 -0.1914,0.47 -0.5468,1.76 -0.7109,2.07 -0.1836,0.39 -0.3164,0.63 -0.6641,1.48 -0.1054,0.27 -0.0781,0.28 -0.2382,0.63 -0.6016,1.41 0.3515,2.59 1.5664,2.83 1.0117,0.2 2.6328,0.61 3.6328,0.91 2.0039,0.6 2.6094,1.37 3.039,2.43 0.4454,1.1 0.711,1.53 2.543,1.53 0.582,0 2.6563,-0.05 3.6094,-0.05 2.7812,0 5.914,2.27 4.8828,4.67 1.9414,-0.35 2.7109,-3.45 2.2305,-4.67 0.9023,0 3.9218,0.59 4.6093,1.16 -0.0156,-2.09 -1.6406,-4.66 -2.8007,-5.3 1.4765,-0.16 4.0898,0.06 4.8823,0.74 -0.48,-1.58 -2.1792,-4.98 -3.2495,-5.47 2.5895,-0.89 4.2895,-2.28 5.4495,-5.5 -1.965,0.81 -3.1292,-0.16 -4.8441,0.1 3.5431,-4.14 4.8521,-10.43 5.8631,-11.99 -0.949,0.51 -2.863,1.58 -4.2927,2.1 1.4687,-3.43 -0.6993,-6.81 -0.3829,-8.63 -1.1015,0.63 -2.539,1.43 -3.0117,2.33 -0.5859,-1.39 -1.8008,-4.09 -1.3281,-7.6 -0.9023,0.96 -2.4453,1.7 -3.1289,2.24 -1.3281,-1.91 -2.1289,-3.13 -2.1289,-8.02 0,-6.68 3.1094,-13.06 4.4609,-15.59 2.0742,-3.89 2.5899,-7.18 2.9219,-8.5 0.6484,-2.61 2.5195,-4.29 4.9844,-4.29 2.391,0 4.406,2.17 4.406,4.83 0,4.82 -5.894,7.89 -5.894,16.39 0,5.58 4.289,8.36 4.414,11.91 0.109,3.14 -2.774,1.19 -4.922,2.6 2.754,0.54 4.379,3.59 6.828,3.46 2.176,-0.13 2.668,-1.27 2.773,-2.39 0.168,-1.51 -0.824,-3.26 -1.14,-3.89 2.398,2.06 3.465,5.23 3.465,6.82 0,2.4 -3.356,5.04 -2.493,9.62 0.125,0.62 0.118,0.53 0.274,0.89 0.992,-5.14 8.285,-6.47 8.285,-11.56 0,-4.8 -4.144,-3.89 -6.508,-7.22 2.59,1.06 5.532,0.53 5.532,-2.33 z m -49.1177,35.09 c -0.6523,-2.43 -0.625,-5.54 2.7578,-5.54 2.6328,0 7.2266,2.25 8.1797,2.7 l 0.3945,-0.87 c -0.7539,-0.3 -6.75,-5.11 -11.5859,-5.18 -2.7109,-0.04 -3.6367,1.6 -3.6367,3.19 0,2.45 1.9219,3.32 3.8906,5.7 z m 209.7617,45.45 c -86.402,-0.73 -167.508,-9.17 -227.9336,-22.78 -23.914,-5.4 -32.8086,-22.71 -35.3906,-36.56 C 7.05078,1389.18 -2.42969,1311.65 0.566406,1231.94 15.2695,1245.93 150.734,1377.67 150.734,1377.67 L 291.5,1237.13 c 0,96.5 -6.312,188.95 -13.793,250.59"
         style="fill:#611c66;fill-opacity:1;fill-rule:nonzero;stroke:none"
         id="path28" /><path
         d="m 82.6523,1448 c -0.4062,-0.77 -0.1367,-2.07 0.2735,-2.68 0.6562,0.07 2.2226,0.51 3.0625,1.04 0.9805,0.6 1.2539,1.06 2.3008,1.8 -1.0078,0.08 -5.4883,0.11 -5.6368,-0.16"
         style="fill:#611c66;fill-opacity:1;fill-rule:nonzero;stroke:none"
         id="path30" /><path
         d="m 221.633,1457.78 c -0.422,-0.79 -0.141,-2.16 0.289,-2.8 0.683,0.07 2.308,0.54 3.191,1.09 1.016,0.62 1.297,1.11 2.395,1.88 -1.051,0.08 -5.723,0.1 -5.875,-0.17"
         style="fill:#611c66;fill-opacity:1;fill-rule:nonzero;stroke:none"
         id="path32" /><g
         id="g34"
         transform="scale(10)"><text
           transform="matrix(1,0,0,-1,69.9688,25.6078)"
           style="font-variant:normal;font-weight:normal;font-size:18.5px;font-family:Gotham;-inkscape-font-specification:Gotham-Book;writing-mode:lr-tb;fill:#001f38;fill-opacity:1;fill-rule:nonzero;stroke:none"
           id="text38"><tspan
             x="0 14.467 25.419001 37.702999 48.414501 55.907001 63.381001 80.974503 91.926498 103.322 110.796 116.346 128.297 135.0865 140.63651 153.03099 164.42699 176.71098 181.57649 192.97197 203.92398 214.87598 222.36847 227.23398 238.62997"
             y="0"
             sodipodi:role="line"
             id="tspan36">Department of Engineering</tspan></text></g></g></g></svg>
