<?xml version="1.0" standalone="no"?>
<!DOCTYPE svg PUBLIC "-//W3C//DTD SVG 20010904//EN"
 "http://www.w3.org/TR/2001/REC-SVG-20010904/DTD/svg10.dtd">
<svg version="1.0" xmlns="http://www.w3.org/2000/svg"
 width="1280.000000pt" height="744.000000pt" viewBox="0 0 1280.000000 744.000000"
 preserveAspectRatio="xMidYMid meet">
<g transform="translate(0.000000,744.000000) scale(0.100000,-0.100000)"
fill="#000000" stroke="none">
<path d="M4552 7277 c-38 -40 -29 -74 73 -277 195 -390 329 -718 436 -1070
213 -697 299 -1337 286 -2115 -7 -382 -8 -394 -92 -610 -53 -138 -64 -160 -75
-149 -5 5 -2 137 7 294 8 157 16 422 16 590 2 294 1 308 -21 380 -29 91 -81
150 -132 150 -74 0 -145 -62 -205 -181 -46 -90 -59 -140 -104 -404 -22 -126
-69 -405 -106 -620 -37 -214 -68 -392 -70 -395 -10 -17 -56 -251 -65 -336 -19
-178 14 -349 89 -458 37 -54 203 -216 268 -263 27 -19 73 -47 103 -63 102 -53
98 -34 50 -216 -83 -319 -175 -627 -306 -1026 -46 -141 -84 -270 -84 -288 0
-59 67 -98 121 -70 10 6 27 27 38 48 44 88 269 807 361 1152 28 107 58 219 66
249 l15 54 142 -7 c228 -11 410 14 727 100 446 121 715 229 880 353 105 79
289 275 363 386 65 99 121 155 137 139 4 -5 13 -70 20 -144 60 -698 345 -1338
794 -1784 305 -302 663 -498 1057 -578 99 -20 143 -23 339 -23 194 0 240 4
335 23 302 62 551 175 800 362 116 86 304 270 395 385 291 367 493 845 564
1335 18 120 36 351 36 458 0 39 3 72 6 72 3 0 34 -25 67 -55 190 -170 434
-185 616 -36 99 80 173 183 224 312 30 76 77 299 77 367 0 60 -34 237 -61 322
-79 247 -260 428 -462 463 -137 23 -290 -30 -400 -139 -30 -30 -59 -54 -64
-54 -6 0 -4 36 5 93 27 163 12 841 -18 871 -6 6 -10 54 -10 107 0 55 -4 101
-10 104 -5 3 -10 31 -10 61 0 38 -4 56 -14 60 -12 5 -13 34 -9 174 6 164 6
168 -16 179 -11 7 -21 20 -21 30 0 17 -3 18 -31 8 -28 -11 -32 -10 -51 16 -11
15 -26 27 -33 27 -7 0 -16 11 -19 25 -4 16 -13 25 -26 25 -13 0 -20 7 -20 20
0 10 -9 24 -20 30 -11 6 -20 17 -20 25 0 7 -14 16 -30 20 -20 5 -32 14 -36 31
-5 20 -10 23 -33 18 -14 -4 -44 -16 -65 -26 -32 -16 -43 -18 -61 -8 -18 10
-28 9 -55 -5 -37 -19 -60 -14 -60 15 0 11 -5 20 -10 20 -6 0 -15 10 -21 23 -9
20 -18 23 -52 23 -35 -1 -42 2 -45 20 -2 16 -11 21 -38 22 -36 1 -84 41 -84
69 0 11 -4 11 -20 3 -26 -14 -80 7 -80 31 0 9 -9 19 -20 22 -12 3 -20 14 -20
26 0 25 -9 26 -36 6 -22 -17 -64 -20 -64 -5 0 6 -11 8 -26 4 -17 -5 -29 -1
-37 11 -11 14 -17 15 -41 4 -25 -12 -30 -11 -41 5 -12 16 -17 15 -76 -14 -35
-18 -77 -34 -93 -35 -17 -2 -40 -5 -51 -7 -16 -2 -21 3 -23 30 -2 20 -9 32
-18 32 -8 0 -14 8 -14 18 0 33 -12 33 -68 1 -65 -36 -115 -37 -120 -2 l-3 23
-49 -25 c-59 -30 -80 -31 -80 -7 0 32 -11 32 -82 -4 -46 -23 -72 -43 -78 -59
-11 -30 -40 -33 -40 -5 0 11 -7 23 -15 26 -8 4 -15 13 -15 21 0 9 -12 26 -26
40 l-25 23 -49 -26 c-31 -17 -55 -24 -68 -19 -12 3 -35 -1 -53 -11 -26 -13
-37 -14 -51 -5 -14 9 -26 7 -58 -9 -50 -25 -70 -25 -77 0 -7 26 -13 26 -84
-11 -50 -25 -66 -29 -88 -21 -20 7 -35 6 -55 -5 -34 -18 -56 -11 -56 17 l0 20
-41 -20 c-43 -23 -69 -21 -69 5 0 24 -20 18 -109 -35 -88 -52 -111 -60 -111
-36 0 8 -9 18 -20 21 -11 3 -20 15 -20 26 0 10 -4 19 -10 19 -9 0 -100 -49
-169 -92 -26 -17 -37 -19 -51 -10 -14 8 -22 7 -36 -3 -25 -19 -50 -19 -58 0
-4 11 -13 14 -30 9 -17 -4 -27 -1 -34 11 -8 16 -16 14 -78 -19 -49 -25 -73
-44 -80 -64 -8 -20 -32 -38 -98 -70 -48 -24 -95 -51 -105 -60 -33 -33 -71 -52
-93 -47 -15 3 -48 -9 -93 -33 l-70 -37 3 -45 c2 -39 -1 -49 -28 -74 -24 -22
-30 -36 -28 -61 1 -18 -4 -40 -10 -48 -8 -9 -10 -26 -6 -42 5 -19 1 -32 -13
-48 -18 -21 -19 -33 -12 -222 6 -200 4 -218 -28 -251 -14 -14 -18 -40 -20
-152 -2 -132 -3 -136 -29 -163 l-28 -29 3 -167 c2 -153 4 -172 26 -218 34 -72
39 -109 20 -125 -14 -12 -21 -11 -43 4 -119 78 -246 104 -354 72 -88 -25 -88
-25 -88 44 0 133 -64 164 -181 89 -107 -68 -235 -222 -594 -711 -192 -263
-353 -478 -357 -478 -15 0 -8 36 41 216 208 753 252 922 265 1015 41 279 -4
449 -119 449 -119 0 -266 -196 -409 -547 -25 -62 -57 -136 -72 -165 -23 -45
-28 -50 -34 -33 -4 11 -10 130 -13 265 -19 766 -180 1543 -468 2267 -116 291
-328 728 -380 784 -35 37 -86 40 -117 6z m5188 -1302 c0 -8 -4 -15 -10 -15 -5
0 -10 7 -10 15 0 8 5 15 10 15 6 0 10 -7 10 -15z m-3081 -2934 c24 -105 82
-237 136 -311 19 -26 35 -50 35 -54 0 -11 -67 -40 -287 -122 -227 -85 -253
-93 -253 -73 0 14 294 632 317 669 15 23 17 23 23 5 4 -11 17 -62 29 -114z"/>
<path d="M3382 6867 c-36 -38 -29 -84 37 -230 335 -749 511 -1506 540 -2320
34 -962 -144 -1965 -545 -3075 -46 -127 -84 -248 -84 -267 0 -43 37 -85 74
-85 45 0 82 44 116 138 161 439 252 720 338 1047 426 1603 367 3035 -180 4395
-95 234 -154 359 -185 393 -34 35 -81 36 -111 4z"/>
<path d="M2042 6197 c-39 -42 -30 -75 78 -276 547 -1023 698 -1963 463 -2886
-87 -343 -237 -700 -432 -1027 -87 -147 -97 -177 -77 -216 17 -33 34 -42 75
-42 39 0 71 35 145 159 316 525 509 1103 557 1669 15 179 6 603 -15 757 -81
567 -262 1108 -551 1646 -88 163 -127 224 -150 233 -34 13 -72 6 -93 -17z"/>
<path d="M1060 5730 c-43 -43 -39 -58 73 -288 120 -247 182 -412 237 -627 180
-708 89 -1412 -296 -2273 -72 -160 -79 -204 -41 -240 30 -28 67 -28 102 0 49
39 205 397 304 698 142 432 199 800 188 1205 -10 374 -75 688 -213 1039 -74
187 -208 449 -246 481 -36 30 -81 32 -108 5z"/>
<path d="M183 5078 c-12 -6 -27 -23 -33 -39 -16 -37 -6 -65 60 -174 316 -523
312 -1022 -12 -1538 -61 -98 -71 -147 -38 -182 29 -31 77 -33 113 -5 64 50
211 329 271 512 56 171 70 260 70 453 0 189 -18 300 -75 470 -60 177 -212 458
-270 499 -26 18 -54 20 -86 4z"/>
</g>
</svg>
