<?xml version="1.0" encoding="utf-8"?>
<!-- Generator: Adobe Illustrator 25.2.3, SVG Export Plug-In . SVG Version: 6.00 Build 0)  -->
<svg version="1.1" id="Layer_1" xmlns="http://www.w3.org/2000/svg" xmlns:xlink="http://www.w3.org/1999/xlink" x="0px" y="0px"
	 viewBox="0 0 177 40" style="enable-background:new 0 0 177 40;" xml:space="preserve">
<style type="text/css">
	.st0{clip-path:url(#SVGID_3_);}
	.st1{clip-path:url(#SVGID_4_);}
</style>
<g>
	<g>
		<defs>
			<rect id="SVGID_1_" width="177" height="40"/>
		</defs>
		<defs>
			<path id="SVGID_2_" d="M20,0c11,0,20,9,20,20c0,11-9,20-20,20C9,40,0,31,0,20C0,9,9,0,20,0L20,0z M20,4C11.2,4,4,11.2,4,20
				s7.2,16,16,16s16-7.2,16-16S28.8,4,20,4L20,4z M20,17c4.4,0,8,3.6,8,8c0,4.4-3.6,8-8,8c-4.4,0-8-3.6-8-8C12,20.6,15.6,17,20,17
				L20,17z M20,21c-2.2,0-4,1.8-4,4c0,2.2,1.8,4,4,4c2.2,0,4-1.8,4-4C24,22.8,22.2,21,20,21L20,21z M53.6,12c1.3,0,2.4,0.2,3.4,0.6
				c1,0.4,1.8,1,2.5,1.7c0.7,0.7,1.2,1.5,1.5,2.4c0.3,0.9,0.5,1.8,0.5,2.7l0,0v0.4l0,0.3c0,0.7-0.2,1.5-0.5,2.2
				c-0.3,0.9-0.8,1.7-1.5,2.4c-0.7,0.8-1.5,1.4-2.5,1.8c-1,0.5-2.1,0.7-3.5,0.7c-1.3,0-2.5-0.2-3.5-0.7c-1-0.5-1.8-1.1-2.5-1.8
				s-1.1-1.6-1.5-2.4c-0.3-0.9-0.5-1.7-0.5-2.6l0,0v-0.4l0-0.3c0-0.8,0.2-1.6,0.5-2.4c0.3-0.9,0.8-1.7,1.5-2.4
				c0.7-0.7,1.5-1.3,2.5-1.7C51.2,12.2,52.3,12,53.6,12L53.6,12z M148.3,15.6c1.2,0,2.2,0.3,3,0.8c0.8,0.5,1.5,1.2,1.9,2.1
				c0.4,0.9,0.7,1.8,0.7,2.9l0,0v1.2H146l0,0.2c0,0.1,0.1,0.3,0.1,0.4c0.2,0.4,0.4,0.8,0.8,1s0.8,0.4,1.4,0.4c0.5,0,0.9-0.1,1.2-0.3
				c0.3-0.2,0.6-0.4,0.7-0.7l0,0h3.3l-0.1,0.3c-0.2,0.6-0.5,1.2-0.9,1.7c-0.5,0.6-1.1,1-1.8,1.4c-0.7,0.3-1.6,0.5-2.5,0.5
				c-0.9,0-1.8-0.2-2.5-0.5s-1.3-0.8-1.8-1.3c-0.5-0.5-0.9-1.2-1.1-1.8c-0.3-0.7-0.4-1.4-0.4-2.1l0,0v-0.4l0-0.3
				c0-0.6,0.2-1.2,0.4-1.8c0.3-0.7,0.6-1.3,1.1-1.8c0.5-0.5,1.1-1,1.8-1.3C146.6,15.7,147.4,15.6,148.3,15.6L148.3,15.6z M67,16v6.5
				l0,0.2c0,0.4,0.2,0.8,0.4,1c0.3,0.3,0.7,0.5,1.2,0.5c0.5,0,0.9-0.2,1.2-0.5c0.3-0.3,0.5-0.7,0.5-1.2l0,0V16h3.6v11H71v-2.6
				L71,24.6c0,0.2-0.1,0.4-0.2,0.5c-0.3,0.7-0.7,1.3-1.3,1.7c-0.6,0.4-1.3,0.5-2.1,0.5l0,0h-0.2l-0.2,0c-1.1-0.1-2-0.5-2.7-1.2
				c-0.7-0.8-1-2.1-1-3.8l0,0V16H67L67,16z M102.4,16v6.5l0,0.2c0,0.4,0.2,0.8,0.4,1c0.3,0.3,0.7,0.5,1.2,0.5c0.5,0,0.9-0.2,1.2-0.5
				c0.3-0.3,0.5-0.7,0.5-1.2l0,0V16h3.6v11h-2.9v-2.6l-0.1,0.2c0,0.2-0.1,0.4-0.2,0.5c-0.3,0.7-0.7,1.3-1.3,1.7
				c-0.6,0.4-1.3,0.5-2.1,0.5l0,0h-0.2l-0.2,0c-1.1-0.1-2-0.5-2.7-1.2c-0.7-0.8-1-2.1-1-3.8l0,0V16H102.4L102.4,16z M116.1,15.6
				c1.5,0,2.7,0.3,3.6,1c0.9,0.6,1.4,1.6,1.4,2.8l0,0h-3.2l0-0.1c-0.1-0.3-0.2-0.5-0.5-0.7c-0.3-0.2-0.7-0.4-1.3-0.4
				c-0.4,0-0.8,0.1-1,0.2s-0.4,0.4-0.4,0.6c0,0.3,0.1,0.5,0.4,0.6c0.2,0.1,0.6,0.2,1.2,0.3l0,0L117,20l0.3,0
				c1.3,0.2,2.2,0.5,2.9,1.1c0.8,0.6,1.1,1.5,1.1,2.5c0,0.8-0.2,1.4-0.6,2c-0.4,0.5-1,1-1.7,1.3c-0.8,0.3-1.6,0.4-2.7,0.4
				c-1.6,0-2.9-0.3-3.8-1c-0.9-0.7-1.4-1.6-1.5-2.8l0,0h3.2l0,0.1c0.1,0.3,0.3,0.5,0.6,0.7c0.4,0.2,0.9,0.4,1.5,0.4
				c0.5,0,0.9-0.1,1.2-0.2c0.3-0.1,0.5-0.4,0.5-0.7c0-0.3-0.1-0.5-0.4-0.7c-0.3-0.2-0.8-0.3-1.5-0.4l0,0l-0.8-0.1l-0.3,0
				c-1.3-0.2-2.2-0.5-2.8-1.1c-0.7-0.6-1-1.4-1-2.4c0-0.8,0.2-1.5,0.6-2c0.4-0.5,1-0.9,1.7-1.2C114.4,15.8,115.2,15.6,116.1,15.6
				L116.1,15.6z M159.9,15.6c1.5,0,2.7,0.3,3.6,1s1.4,1.6,1.4,2.8l0,0h-3.2l0-0.1c-0.1-0.3-0.2-0.5-0.5-0.7
				c-0.3-0.2-0.7-0.4-1.3-0.4c-0.4,0-0.8,0.1-1,0.2s-0.4,0.4-0.4,0.6c0,0.3,0.1,0.5,0.4,0.6c0.2,0.1,0.6,0.2,1.2,0.3l0,0l0.8,0.1
				l0.3,0c1.3,0.2,2.2,0.5,2.9,1.1c0.8,0.6,1.1,1.5,1.1,2.5c0,0.8-0.2,1.4-0.6,2c-0.4,0.5-1,1-1.7,1.3c-0.8,0.3-1.7,0.4-2.7,0.4
				c-1.6,0-2.9-0.3-3.8-1c-0.9-0.7-1.4-1.6-1.5-2.8l0,0h3.2l0,0.1c0.1,0.3,0.3,0.5,0.6,0.7c0.4,0.2,0.9,0.4,1.5,0.4
				c0.5,0,0.9-0.1,1.2-0.2c0.3-0.1,0.5-0.4,0.5-0.7c0-0.3-0.1-0.5-0.4-0.7c-0.3-0.2-0.8-0.3-1.5-0.4l0,0l-0.8-0.1l-0.3,0
				c-1.3-0.2-2.2-0.5-2.8-1.1c-0.7-0.6-1-1.4-1-2.4c0-0.8,0.2-1.5,0.6-2c0.4-0.5,1-0.9,1.7-1.2C158.2,15.8,159,15.6,159.9,15.6
				L159.9,15.6z M171.1,15.6c1.5,0,2.7,0.3,3.6,1c0.9,0.6,1.4,1.6,1.4,2.8l0,0h-3.2l0-0.1c-0.1-0.3-0.2-0.5-0.5-0.7
				c-0.3-0.2-0.7-0.4-1.3-0.4c-0.4,0-0.8,0.1-1,0.2c-0.3,0.1-0.4,0.4-0.4,0.6c0,0.3,0.1,0.5,0.4,0.6c0.2,0.1,0.6,0.2,1.2,0.3l0,0
				L172,20l0.3,0c1.3,0.2,2.2,0.5,2.9,1.1c0.8,0.6,1.1,1.5,1.1,2.5c0,0.8-0.2,1.4-0.6,2c-0.4,0.5-1,1-1.7,1.3
				c-0.8,0.3-1.7,0.4-2.7,0.4c-1.6,0-2.9-0.3-3.8-1s-1.4-1.6-1.5-2.8l0,0h3.2l0,0.1c0.1,0.3,0.3,0.5,0.6,0.7
				c0.4,0.2,0.9,0.4,1.5,0.4c0.5,0,0.9-0.1,1.2-0.2c0.3-0.1,0.5-0.4,0.5-0.7c0-0.3-0.1-0.5-0.4-0.7c-0.3-0.2-0.8-0.3-1.5-0.4l0,0
				l-0.8-0.1l-0.3,0c-1.3-0.2-2.2-0.5-2.8-1.1c-0.7-0.6-1-1.4-1-2.4c0-0.8,0.2-1.5,0.6-2c0.4-0.5,1-0.9,1.7-1.2
				C169.4,15.8,170.2,15.6,171.1,15.6L171.1,15.6z M91,12.3l0.3,0c1.5,0,2.8,0.4,3.6,1.1c0.9,0.7,1.4,1.7,1.4,3l0,0v0.3l0,0.2
				c0,0.8-0.3,1.5-0.7,2l0,0l-0.2,0.2c-0.1,0.1-0.2,0.2-0.4,0.3l0,0L95,19.5l0.1,0c0.5,0.2,0.9,0.5,1.2,0.9c0.5,0.6,0.7,1.3,0.7,2.2
				l0,0v0.3l0,0.3c0,0.8-0.2,1.4-0.6,2c-0.4,0.6-1,1.1-1.8,1.4l0,0l-0.3,0.1c-0.7,0.3-1.6,0.4-2.7,0.4l0,0h-6.3V12.3H91L91,12.3z
				 M136.8,15.6l0.2,0c1.1,0.1,2,0.5,2.7,1.2c0.7,0.8,1,2.1,1,3.8l0,0V27h-3.6v-6.4l0-0.2c0-0.4-0.2-0.8-0.4-1.1
				c-0.3-0.3-0.7-0.5-1.2-0.5s-0.9,0.2-1.2,0.5c-0.3,0.3-0.5,0.8-0.5,1.3l0,0V27h-3.6V16h2.9v2.9l0-0.2c0-0.2,0.1-0.4,0.2-0.6
				l0.1-0.3c0.3-0.8,0.7-1.3,1.3-1.7c0.6-0.4,1.3-0.6,2.1-0.6l0,0H136.8L136.8,15.6z M127.4,16v11h-3.6v-8.4h-1.4V16H127.4L127.4,16
				z M83.6,15.8v3.1h-0.8l-0.2,0c-0.7,0-1.2,0.3-1.7,0.7c-0.4,0.4-0.7,1.1-0.7,1.9l0,0V27h-3.6V16h2.9v3.9l0,0
				c0.1-1.1,0.4-2,0.9-2.7c0.6-0.9,1.6-1.3,2.8-1.3l0,0H83.6L83.6,15.8z M91.7,21h-2.8v3.3h2.8l0.2,0c0.5,0,0.8-0.2,1-0.4
				c0.3-0.3,0.4-0.7,0.4-1.2s-0.1-0.9-0.4-1.2S92.2,21,91.7,21L91.7,21L91.7,21z M53.6,15.4c-0.6,0-1.2,0.1-1.7,0.3
				c-0.5,0.2-0.9,0.5-1.3,0.9c-0.4,0.4-0.6,0.8-0.8,1.3c-0.2,0.5-0.3,1.1-0.3,1.7c0,0.6,0.1,1.2,0.3,1.7c0.2,0.5,0.5,1,0.8,1.4
				c0.4,0.4,0.8,0.7,1.3,0.9c0.5,0.2,1.1,0.3,1.7,0.3c0.6,0,1.2-0.1,1.7-0.3c0.5-0.2,0.9-0.5,1.3-0.9c0.4-0.4,0.6-0.8,0.8-1.4
				c0.2-0.5,0.3-1.1,0.3-1.7c0-0.6-0.1-1.2-0.3-1.7c-0.2-0.5-0.5-1-0.8-1.3c-0.4-0.4-0.8-0.7-1.3-0.9C54.8,15.5,54.3,15.4,53.6,15.4
				L53.6,15.4z M148.3,18.5c-0.5,0-0.9,0.1-1.2,0.3c-0.4,0.2-0.6,0.6-0.8,1l0,0l-0.1,0.2c0,0.1-0.1,0.3-0.1,0.4l0,0l0,0.1h4.4l0-0.1
				c0-0.2-0.1-0.4-0.2-0.6c-0.2-0.4-0.4-0.8-0.7-1C149.2,18.6,148.8,18.5,148.3,18.5L148.3,18.5z M91.1,15.1h-2.3v3.1h2.3l0.2,0
				c0.5,0,0.8-0.2,1-0.4c0.2-0.3,0.4-0.7,0.4-1.2c0-0.5-0.1-0.9-0.4-1.2C92.1,15.3,91.7,15.1,91.1,15.1L91.1,15.1L91.1,15.1z M16,9
				v8.3h-4V9H16L16,9z M125.2,11.4c0.7,0,1.2,0.2,1.5,0.5c0.3,0.3,0.5,0.8,0.5,1.3s-0.2,1-0.5,1.3c-0.3,0.3-0.8,0.5-1.4,0.5
				c-0.7,0-1.2-0.2-1.5-0.5c-0.3-0.3-0.5-0.8-0.5-1.3s0.2-1,0.5-1.3C124.1,11.6,124.6,11.4,125.2,11.4L125.2,11.4z"/>
		</defs>
		<clipPath id="SVGID_3_">
			<use xlink:href="#SVGID_1_"  style="overflow:visible;"/>
		</clipPath>
		<clipPath id="SVGID_4_" class="st0">
			<use xlink:href="#SVGID_2_"  style="overflow:visible;"/>
		</clipPath>
		<rect x="-1" y="-1" class="st1" width="178.4" height="42"/>
	</g>
</g>
</svg>
